<mxfile host="app.diagrams.net" modified="2024-05-22T12:33:13.965Z" agent="Mozilla/5.0 (Windows NT 10.0; Win64; x64) AppleWebKit/537.36 (KHTML, like Gecko) Chrome/125.0.0.0 Safari/537.36 Edg/125.0.0.0" version="24.2.5" etag="a2SYdHQKKD7P4zaWOxr2" type="github">
  <diagram name="Страница — 1" id="7nsEXdiYAtRtkcKbHqYA">
    <mxGraphModel>
      <root>
        <mxCell id="0" />
        <mxCell id="1" parent="0" />
      </root>
    </mxGraphModel>
  </diagram>
</mxfile>
